<svg width="800" height="260" viewBox="0 0 800 260" xmlns="http://www.w3.org/2000/svg">
  <defs>
    <linearGradient id="bg" x1="0%" y1="0%" x2="100%" y2="100%">
      <stop offset="0%" style="stop-color:#0d1117"/>
      <stop offset="100%" style="stop-color:#161b22"/>
    </linearGradient>
  </defs>
  <rect width="800" height="260" rx="14" fill="url(#bg)"/>
  <rect width="800" height="260" rx="14" fill="none" stroke="#30363d" stroke-width="1"/>
  <text x="72" y="62" font-family="monospace" font-size="13" fill="#8b949e" letter-spacing="5">PROJECT BREAKDOWN</text>
  <line x1="72" y1="74" x2="480" y2="74" stroke="#21262d" stroke-width="1"/>

  <rect x="72" y="102" width="12" height="12" fill="#3fb950" rx="2"/>
  <text x="94" y="113" font-family="monospace" font-size="14" fill="#e6edf3">Python</text>
  <text x="300" y="113" font-family="monospace" font-size="14" fill="#8b949e">4 projects</text>
  <rect x="72" y="138" width="12" height="12" fill="#58a6ff" rx="2"/>
  <text x="94" y="149" font-family="monospace" font-size="14" fill="#e6edf3">C</text>
  <text x="300" y="149" font-family="monospace" font-size="14" fill="#8b949e">4 projects</text>
  <rect x="72" y="174" width="12" height="12" fill="#6e7681" rx="2"/>
  <text x="94" y="185" font-family="monospace" font-size="14" fill="#e6edf3">Config / Shell</text>
  <text x="300" y="185" font-family="monospace" font-size="14" fill="#8b949e">1 project</text>
  <line x1="72" y1="210" x2="480" y2="210" stroke="#21262d" stroke-width="1"/>
  <text x="72" y="234" font-family="monospace" font-size="13" fill="#8b949e">Currently</text>
  <text x="300" y="234" font-family="monospace" font-size="13" fill="#e6edf3">42 Core Curriculum</text>
  <circle cx="655" cy="138" r="78" fill="none" stroke="#21262d" stroke-width="26"/>
  <circle cx="655" cy="138" r="78" fill="none" stroke="#3fb950" stroke-width="24" stroke-dasharray="217.82 490.09" transform="rotate(-90.00 655 138)"/>
  <circle cx="655" cy="138" r="78" fill="none" stroke="#58a6ff" stroke-width="24" stroke-dasharray="217.82 490.09" transform="rotate(70.00 655 138)"/>
  <circle cx="655" cy="138" r="78" fill="none" stroke="#6e7681" stroke-width="24" stroke-dasharray="54.45 490.09" transform="rotate(230.00 655 138)"/>

  <text x="655" y="130" font-family="monospace" font-size="34" fill="#e6edf3" text-anchor="middle" font-weight="bold">9</text>
  <text x="655" y="153" font-family="monospace" font-size="12" fill="#8b949e" text-anchor="middle">projects</text>
</svg>